# xmcd
#
# Track frame offsets: 
#        150
#        13029
#        26497
#        38185
#        50957
#        63283
#        76569
#        88889
#        99614
#        113221
#        125020
#        137138
#        149907
#        163817
#
# Disc length: 2333 seconds
#
# Revision: 0
# Processed by: cddbd v1.5.2PL0 Copyright (c) Steve Scherf et al.
# Submitted via: ExactAudioCopyFreeDBPlugin 1.0
#
DISCID=ca091b0e
DTITLE=Roy Milton - Roy Milton
DYEAR=2006
DGENRE=Blues
TTITLE0=Milton's Boogie
TTITLE1=R.M. Blues
TTITLE2=Hop, Skip and Jump
TTITLE3=True Blues
TTITLE4=Information Blues
TTITLE5=Thrill Me
TTITLE6=Best Wishes
TTITLE7=The Hucklebuck
TTITLE8=Everything I Do Is Wrong
TTITLE9=Porter's Love Song (To A Chambermaid)
TTITLE10=It's Later Than You Think
TTITLE11=T-Town Twist
TTITLE12=Night and Day (I Miss You)
TTITLE13=Oh Babe!
EXTD=
EXTT0=
EXTT1=
EXTT2=
EXTT3=
EXTT4=
EXTT5=
EXTT6=
EXTT7=
EXTT8=
EXTT9=
EXTT10=
EXTT11=
EXTT12=
EXTT13=
PLAYORDER=
